<svg xmlns="http://www.w3.org/2000/svg">
    <symbol id="facebook" width="24" height="24" viewBox="0 0 24 24">
      <path d="M9 8h-3v4h3v12h5v-12h3.642l.358-4h-4v-1.667c0-.955.192-1.333 1.115-1.333h2.885v-5h-3.808c-3.596 0-5.192 1.583-5.192 4.615v3.385z"/>
    </symbol>
    <symbol id="twitter" width="24" height="24" viewBox="0 0 24 24">
      <path d="M24 4.557c-.883.392-1.832.656-2.828.775 1.017-.609 1.798-1.574 2.165-2.724-.951.564-2.005.974-3.127 1.195-.897-.957-2.178-1.555-3.594-1.555-3.179 0-5.515 2.966-4.797 6.045-4.091-.205-7.719-2.165-10.148-5.144-1.29 2.213-.669 5.108 1.523 6.574-.806-.026-1.566-.247-2.229-.616-.054 2.281 1.581 4.415 3.949 4.89-.693.188-1.452.232-2.224.084.626 1.956 2.444 3.379 4.6 3.419-2.07 1.623-4.678 2.348-7.29 2.04 2.179 1.397 4.768 2.212 7.548 2.212 9.142 0 14.307-7.721 13.995-14.646.962-.695 1.797-1.562 2.457-2.549z"/>
    </symbol>
    <symbol id="basketball" width="24" height="24" viewBox="0 0 24 24" fill-rule="evenodd" clip-rule="evenodd">
      <path d="M15.062 21.518c.426-2.809.573-5.6.444-8.338 2.788.488 3.993 3.112 4.729 4.484-1.239 1.799-3.052 3.17-5.173 3.854m-8.502-1.136c2.47-2.684 4.118-6.227 6.946-7.078.132 2.833-.04 5.73-.533 8.648-2.354.221-4.56-.364-6.413-1.57m-4.479-7.167c3.397-1.758 7.199-2.832 11.13-3.21.059.433.115.867.159 1.304-4.026 1.006-5.615 4.88-8.375 7.82-1.575-1.547-2.634-3.61-2.914-5.914m2.509-7.911c2.405.211 5.2 1.617 8.112 1.776.065.296.116.596.173.894-4.045.398-7.957 1.579-10.824 3.004.222-2.175 1.15-4.137 2.539-5.674m8.765-3.201c1.318.18 2.553.613 3.656 1.255-.898.805-1.432 1.341-2.761 1.633-.261-.978-.555-1.942-.895-2.888m-2.156-.062c.378.986.701 1.996.989 3.019-1.799-.22-3.579-.967-5.625-1.444 1.355-.881 2.935-1.44 4.636-1.575m10.044 6.149c-2.579-.38-4.559-.423-6.351-.352l-.161-.889c2.079-.453 2.698-1.557 3.99-2.334 1.083.986 1.953 2.2 2.522 3.575m-6.021 1.684c2.198-.073 4.42.06 6.624.441.291 1.705.178 3.412-.495 5.201-1.313-2.234-3.378-4.226-5.992-4.401-.041-.415-.083-.829-.137-1.241m-3.223-9.874c-6.623 0-12 5.377-12 12s5.377 12 12 12c6.624 0 12.001-5.377 12.001-12s-5.377-12-12.001-12"/>
    </symbol>
    <symbol id="instagram" width="24" height="24" viewBox="0 0 24 24">
      <path d="M12 2.163c3.204 0 3.584.012 4.85.07 3.252.148 4.771 1.691 4.919 4.919.058 1.265.069 1.645.069 4.849 0 3.205-.012 3.584-.069 4.849-.149 3.225-1.664 4.771-4.919 4.919-1.266.058-1.644.07-4.85.07-3.204 0-3.584-.012-4.849-.07-3.26-.149-4.771-1.699-4.919-4.92-.058-1.265-.07-1.644-.07-4.849 0-3.204.013-3.583.07-4.849.149-3.227 1.664-4.771 4.919-4.919 1.266-.057 1.645-.069 4.849-.069zm0-2.163c-3.259 0-3.667.014-4.947.072-4.358.2-6.78 2.618-6.98 6.98-.059 1.281-.073 1.689-.073 4.948 0 3.259.014 3.668.072 4.948.2 4.358 2.618 6.78 6.98 6.98 1.281.058 1.689.072 4.948.072 3.259 0 3.668-.014 4.948-.072 4.354-.2 6.782-2.618 6.979-6.98.059-1.28.073-1.689.073-4.948 0-3.259-.014-3.667-.072-4.947-.196-4.354-2.617-6.78-6.979-6.98-1.281-.059-1.69-.073-4.949-.073zm0 5.838c-3.403 0-6.162 2.759-6.162 6.162s2.759 6.163 6.162 6.163 6.162-2.759 6.162-6.163c0-3.403-2.759-6.162-6.162-6.162zm0 10.162c-2.209 0-4-1.79-4-4 0-2.209 1.791-4 4-4s4 1.791 4 4c0 2.21-1.791 4-4 4zm6.406-11.845c-.796 0-1.441.645-1.441 1.44s.645 1.44 1.441 1.44c.795 0 1.439-.645 1.439-1.44s-.644-1.44-1.439-1.44z"/>
    </symbol>
    <symbol id="google-plus" width="24" height="24" viewBox="0 0 24 24">
      <path d="M12 0c-6.627 0-12 5.373-12 12s5.373 12 12 12 12-5.373 12-12-5.373-12-12-12zm-2.917 16.083c-2.258 0-4.083-1.825-4.083-4.083s1.825-4.083 4.083-4.083c1.103 0 2.024.402 2.735 1.067l-1.107 1.068c-.304-.292-.834-.63-1.628-.63-1.394 0-2.531 1.155-2.531 2.579 0 1.424 1.138 2.579 2.531 2.579 1.616 0 2.224-1.162 2.316-1.762h-2.316v-1.4h3.855c.036.204.064.408.064.677.001 2.332-1.563 3.988-3.919 3.988zm9.917-3.5h-1.75v1.75h-1.167v-1.75h-1.75v-1.166h1.75v-1.75h1.167v1.75h1.75v1.166z"/>
    </symbol>
    <symbol id="youtube" width="24" height="24" viewBox="0 0 24 24">
      <path d="M19.615 3.184c-3.604-.246-11.631-.245-15.23 0-3.897.266-4.356 2.62-4.385 8.816.029 6.185.484 8.549 4.385 8.816 3.6.245 11.626.246 15.23 0 3.897-.266 4.356-2.62 4.385-8.816-.029-6.185-.484-8.549-4.385-8.816zm-10.615 12.816v-8l8 3.993-8 4.007z"/>
    </symbol>
</svg>